<svg xmlns="http://www.w3.org/2000/svg" viewBox="0 0 1356 318" aria-label="MapLibre Logo" data-icon="maplibre"><g fill="none"><g clip-path="url(#a)"><g clip-path="url(#b)"><path fill="#fff" d="m292.72 162.643-12.175-27.525-5.558 27.525-17.997 90.78h-29.378l40.229-194.529h3.176l53.463 105.072 15.879 35.201 15.88-35.201 52.404-105.072h2.911l41.817 194.529h-29.113l-19.585-90.78-5.823-27.525-10.586 27.525-47.111 90.78h-1.587zm238.603 93.427q-16.409 0-30.436-7.675-13.763-7.94-22.232-22.232-8.204-14.557-8.204-33.877 0-19.056 7.145-33.348 7.411-14.292 20.909-22.232t31.76-7.94q10.586 0 19.85 3.705 9.262 3.706 15.615 9.264 6.352 5.292 8.469 10.586l.529-20.379h27.261v121.481h-26.996l-.529-21.438q-4.5 9.528-16.409 16.939-11.91 7.146-26.732 7.146m4.764-23.82q15.087 0 25.408-10.322 10.322-10.587 10.322-27.525v-1.853q0-11.38-4.764-20.379t-12.968-14.027q-8.205-5.03-17.998-5.029-16.938 0-26.201 11.116-9.264 10.851-9.264 28.319 0 17.733 8.999 28.849 9.263 10.851 26.466 10.851m104.87-100.308h27.525v22.497q14.556-25.673 45.522-25.673 25.673 0 41.552 16.409 15.88 16.145 15.88 46.846 0 19.056-7.94 33.612-7.674 14.558-21.173 22.497-13.233 7.94-29.642 7.94-15.35 0-26.731-5.293-11.117-5.559-17.468-15.616l.264 82.576h-27.789zm65.107 100.043q17.203 0 26.467-10.851 9.263-11.116 9.263-28.319 0-17.997-9.263-28.584-8.999-10.851-26.467-10.851-9.528 0-17.997 4.764-8.205 4.499-13.233 13.233-4.764 8.47-4.764 19.85v1.853q0 11.38 4.764 20.379 5.028 8.733 13.233 13.762 8.205 4.764 17.997 4.764"></path><path fill="#82B4FE" d="M802.464 58.895h29.907v168.062h55.844v26.466h-85.751zm114.505 73.047h29.642v121.481h-29.642zm14.556-22.761q-8.205 0-13.762-5.558t-5.558-13.763q0-7.41 5.558-12.704 5.557-5.293 13.762-5.293 7.94 0 13.498 5.293t5.558 12.704q0 8.205-5.558 13.763-5.293 5.558-13.498 5.558M1058.18 256.07c-9.89 0-18.8-2.382-26.74-7.146q-11.64-7.411-16.14-16.939l-.53 21.438h-27.525V58.894h28.055v74.901l-1.32 20.644q4.5-10.587 17.46-17.998c8.83-5.117 18.35-7.675 28.59-7.675q18 0 31.23 8.205 13.5 7.94 20.64 22.496c4.77 9.528 7.15 20.644 7.15 33.348 0 12.88-2.82 24.084-8.47 33.612q-8.205 14.292-22.23 21.968c-9.18 5.116-19.23 7.675-30.17 7.675m-4.77-23.82c11.47 0 20.29-3.617 26.47-10.851 6.17-7.411 9.26-16.939 9.26-28.584 0-11.822-3.09-21.35-9.26-28.584-6-7.411-14.82-11.116-26.47-11.116-10.06 0-18.52 3.529-25.41 10.587q-10.32 10.322-10.32 27.26v1.853q0 11.38 4.77 20.379 5.025 8.999 12.96 14.027 8.205 5.03 18 5.029m95.33-100.308h28.58v23.82c2.83-8.117 7.41-14.645 13.77-19.585 6.35-4.941 13.58-7.411 21.7-7.411q8.475 0 11.64 1.588l-3.97 28.848q-2.37-1.588-10.32-1.588c-8.29 0-15.88 2.647-22.76 7.94-6.7 5.294-10.06 13.763-10.06 25.408v62.461h-28.58zm153.34 124.128c-14.47 0-26.55-2.823-36.26-8.469-9.7-5.823-16.85-13.498-21.44-23.026-4.58-9.705-6.88-20.291-6.88-31.76 0-12.88 2.65-24.173 7.94-33.877q8.205-14.557 22.5-22.232c9.53-5.293 20.29-7.94 32.29-7.94q28.05 0 41.55 15.615c9.18 10.234 13.76 24.702 13.76 43.405 0 4.764-.26 9.705-.79 14.821h-87.34c1.94 10.764 5.73 18.527 11.38 23.291 5.82 4.764 13.85 7.146 24.08 7.146q12.705 0 20.91-2.117t15.09-5.823l8.73 20.379c-4.41 2.823-10.41 5.293-17.99 7.411-7.59 2.117-16.77 3.176-27.53 3.176m25.67-73.312q.27-16.41-7.14-23.026-7.41-6.882-21.18-6.881c-18.52 0-29.2 9.969-32.02 29.907z"></path><path fill="#82B4FE" fill-rule="evenodd" d="M91.32.578C41.994.258 1.624 37.59 1.323 83.793c-.266 40.912 19.964 60.885 41.871 82.513 15.273 15.078 31.36 30.96 41.885 55.302.71.577 1.185.962 1.389 1.144a5.16 5.16 0 0 0 3.398 1.286 5.17 5.17 0 0 0 3.416-1.241c.055-.049.156-.092.28-.145.34-.146.857-.368 1.124-.983 10.49-24.11 26.806-39.778 42.388-54.74 22.189-21.307 42.888-41.184 43.153-81.972C180.528 38.753 140.647.9 91.32.578m-.86 132.349c24.424.159 44.356-19.81 44.517-44.602s-19.509-45.019-43.934-45.178-44.356 19.81-44.518 44.602 19.509 45.019 43.934 45.178Z" clip-rule="evenodd"></path><path fill="#fff" fill-rule="evenodd" d="M58.49 238.338c-4.075-.027-7.408 4.48-7.444 10.065l-.184 28.269c-.037 5.585 3.237 10.134 7.313 10.161l62.385.406c4.075.026 7.408-4.48 7.444-10.065l.184-28.269c.037-5.586-3.237-10.135-7.313-10.161z" clip-rule="evenodd"></path></g></g><defs><clipPath id="a"><path fill="#fff" d="M0 0h1356v318H0z"></path></clipPath><clipPath id="b"><path fill="#fff" d="M0 0h1355.33v317.795H0z"></path></clipPath></defs></g></svg>
